<svg version="1.1" id="Layer_1" xmlns="http://www.w3.org/2000/svg" xmlns:xlink="http://www.w3.org/1999/xlink" x="0px" y="0px"
	 width="100%" viewBox="0 0 1024 1024" enable-background="new 0 0 1024 1024" xml:space="preserve">
<path fill="#FEFDF9" opacity="1.000000" stroke="none" 
	d="
M545.000000,1025.000000 
	C363.333344,1025.000000 182.166672,1025.000000 1.000000,1025.000000 
	C1.000000,683.666687 1.000000,342.333344 1.000000,1.000000 
	C342.333344,1.000000 683.666687,1.000000 1025.000000,1.000000 
	C1025.000000,342.333344 1025.000000,683.666687 1025.000000,1025.000000 
	C865.166687,1025.000000 705.333313,1025.000000 545.000000,1025.000000 
M694.500061,89.839691 
	C512.687866,89.794167 330.875641,89.744141 149.063416,89.716148 
	C139.748032,89.714714 130.399307,89.436783 121.124321,90.100777 
	C102.951157,91.401787 87.009918,108.783195 87.009399,126.727074 
	C87.001915,383.198242 87.000633,639.669434 87.010712,896.140625 
	C87.011574,918.080933 105.901100,936.984802 127.871101,936.986084 
	C385.175537,937.001038 642.479980,936.997070 899.784424,936.971924 
	C901.756958,936.971741 903.743286,936.697449 905.700012,936.399475 
	C928.613342,932.909424 939.025391,911.135010 939.022888,894.435669 
	C938.985107,640.630859 939.001099,386.826019 938.955872,133.021194 
	C938.955139,129.227631 938.607910,125.387230 937.960327,121.648720 
	C935.069580,104.959160 921.310120,91.539825 904.387512,90.069695 
	C893.321045,89.108322 882.119080,89.612732 870.977905,89.621223 
	C812.485291,89.665810 753.992737,89.761627 694.500061,89.839691 
z"/>
<path fill="#000000" opacity="1.000000" stroke="none" 
	d="
M695.000122,89.839676 
	C753.992737,89.761627 812.485291,89.665810 870.977905,89.621223 
	C882.119080,89.612732 893.321045,89.108322 904.387512,90.069695 
	C921.310120,91.539825 935.069580,104.959160 937.960327,121.648720 
	C938.607910,125.387230 938.955139,129.227631 938.955872,133.021194 
	C939.001099,386.826019 938.985107,640.630859 939.022888,894.435669 
	C939.025391,911.135010 928.613342,932.909424 905.700012,936.399475 
	C903.743286,936.697449 901.756958,936.971741 899.784424,936.971924 
	C642.479980,936.997070 385.175537,937.001038 127.871101,936.986084 
	C105.901100,936.984802 87.011574,918.080933 87.010712,896.140625 
	C87.000633,639.669434 87.001915,383.198242 87.009399,126.727074 
	C87.009918,108.783195 102.951157,91.401787 121.124321,90.100777 
	C130.399307,89.436783 139.748032,89.714714 149.063416,89.716148 
	C330.875641,89.744141 512.687866,89.794167 695.000122,89.839676 
M758.259277,559.781677 
	C763.753113,538.588196 766.643799,516.947021 767.831604,495.175598 
	C768.917725,475.267456 768.022339,455.358276 765.168762,435.501465 
	C761.947815,413.088104 756.523743,391.393005 747.962097,370.436218 
	C729.817566,326.022888 701.617737,289.498566 662.443726,261.703491 
	C622.258667,233.190979 576.758606,220.595108 528.121399,220.195465 
	C443.473328,219.499924 358.815216,220.025925 274.161285,220.055496 
	C272.890442,220.055939 271.619659,220.257797 269.630463,220.426605 
	C270.114960,224.378052 270.447174,227.960587 271.006409,231.507355 
	C274.880066,256.075348 295.152985,275.634521 320.297821,274.507629 
	C330.702209,274.041351 341.144928,274.430267 351.535156,274.430267 
	C351.535156,293.076569 351.535156,310.964569 351.535156,328.995789 
	C349.394409,328.995789 347.567963,328.995819 345.741516,328.995819 
	C321.911743,328.995911 298.081909,329.013947 274.252197,328.974091 
	C271.147949,328.968903 268.776886,329.106079 268.749115,333.345184 
	C268.654114,347.831390 268.220978,362.315033 268.011627,376.800995 
	C267.927185,382.644073 269.366608,383.960754 275.355408,384.001770 
	C297.847565,384.155823 320.339844,384.300293 342.832062,384.442902 
	C345.615845,384.460541 348.399841,384.445282 351.339203,384.445282 
	C351.339203,446.540192 351.339203,508.098816 351.339203,569.997375 
	C344.881012,569.997375 338.733246,569.774353 332.606964,570.042236 
	C318.384033,570.664246 304.246216,572.243774 290.869629,577.410400 
	C271.887482,584.742065 259.253998,599.262085 249.329620,616.242004 
	C236.669449,637.902649 232.076996,661.098389 238.833099,685.722961 
	C246.798752,714.756042 266.137665,734.083984 292.564453,746.950378 
	C315.708832,758.218811 340.807098,760.475159 365.905548,760.791748 
	C415.057129,761.411804 464.222260,761.104492 513.380737,760.914673 
	C523.990662,760.873718 534.643921,760.137207 545.194031,758.969360 
	C568.182312,756.424622 590.339417,750.526062 611.520630,741.124146 
	C665.954346,716.962280 706.195496,677.953735 733.024231,624.935120 
	C743.462280,604.307617 752.702148,583.204895 758.259277,559.781677 
z"/>
<path fill="#FEFDF9" opacity="1.000000" stroke="none" 
	d="
M758.155823,560.187805 
	C752.702148,583.204895 743.462280,604.307617 733.024231,624.935120 
	C706.195496,677.953735 665.954346,716.962280 611.520630,741.124146 
	C590.339417,750.526062 568.182312,756.424622 545.194031,758.969360 
	C534.643921,760.137207 523.990662,760.873718 513.380737,760.914673 
	C464.222260,761.104492 415.057129,761.411804 365.905548,760.791748 
	C340.807098,760.475159 315.708832,758.218811 292.564453,746.950378 
	C266.137665,734.083984 246.798752,714.756042 238.833099,685.722961 
	C232.076996,661.098389 236.669449,637.902649 249.329620,616.242004 
	C259.253998,599.262085 271.887482,584.742065 290.869629,577.410400 
	C304.246216,572.243774 318.384033,570.664246 332.606964,570.042236 
	C338.733246,569.774353 344.881012,569.997375 351.339203,569.997375 
	C351.339203,508.098816 351.339203,446.540192 351.339203,384.445282 
	C348.399841,384.445282 345.615845,384.460541 342.832062,384.442902 
	C320.339844,384.300293 297.847565,384.155823 275.355408,384.001770 
	C269.366608,383.960754 267.927185,382.644073 268.011627,376.800995 
	C268.220978,362.315033 268.654114,347.831390 268.749115,333.345184 
	C268.776886,329.106079 271.147949,328.968903 274.252197,328.974091 
	C298.081909,329.013947 321.911743,328.995911 345.741516,328.995819 
	C347.567963,328.995819 349.394409,328.995789 351.535156,328.995789 
	C351.535156,310.964569 351.535156,293.076569 351.535156,274.430267 
	C341.144928,274.430267 330.702209,274.041351 320.297821,274.507629 
	C295.152985,275.634521 274.880066,256.075348 271.006409,231.507355 
	C270.447174,227.960587 270.114960,224.378052 269.630463,220.426605 
	C271.619659,220.257797 272.890442,220.055939 274.161285,220.055496 
	C358.815216,220.025925 443.473328,219.499924 528.121399,220.195465 
	C576.758606,220.595108 622.258667,233.190979 662.443726,261.703491 
	C701.617737,289.498566 729.817566,326.022888 747.962097,370.436218 
	C756.523743,391.393005 761.947815,413.088104 765.168762,435.501465 
	C768.022339,455.358276 768.917725,475.267456 767.831604,495.175598 
	C766.643799,516.947021 763.753113,538.588196 758.155823,560.187805 
M588.631714,342.895294 
	C605.668396,351.000885 619.958069,362.754883 632.032959,377.019592 
	C650.615051,398.971558 659.804565,424.750580 662.184937,453.314117 
	C664.376587,479.614441 661.381958,504.964661 652.050781,529.777222 
	C630.468384,587.167053 580.034363,626.013489 514.246887,625.086853 
	C480.262726,624.608215 446.266266,625.002747 412.275391,625.002747 
	C410.483917,625.002747 408.692413,625.002808 406.648132,625.002808 
	C405.723389,653.715027 400.007355,681.086243 389.591339,707.746765 
	C393.495361,707.563965 396.801788,707.283569 400.109009,707.273499 
	C438.596985,707.157593 477.094788,707.550537 515.568176,706.755493 
	C530.027100,706.456726 544.644836,704.444519 558.816833,701.447876 
	C599.726624,692.797424 632.413879,670.290833 658.124146,637.993164 
	C700.087341,585.278320 717.569336,524.911072 712.101379,457.779236 
	C710.282227,435.445007 705.157410,413.962128 697.024170,393.126678 
	C684.563049,361.204193 665.524841,333.928345 638.516785,312.786469 
	C605.559082,286.987183 567.737000,274.571655 525.903442,274.567902 
	C486.751434,274.564392 447.599457,274.735443 408.447510,274.850952 
	C408.019867,274.852203 407.593048,275.139343 407.242950,275.265289 
	C407.242950,293.181000 407.242950,310.932312 407.242950,328.997711 
	C408.944855,328.997711 410.410156,328.997650 411.875488,328.997742 
	C449.198792,328.999817 486.525360,329.299896 523.844177,328.892700 
	C546.357971,328.647003 567.791504,332.404724 588.631714,342.895294 
M602.564453,434.037323 
	C597.729797,422.068817 590.775208,411.593658 581.025574,403.015961 
	C565.161621,389.058777 545.882141,385.274231 525.721191,385.099304 
	C487.581757,384.768372 449.437378,385.001129 411.295044,385.013458 
	C409.877655,385.013916 408.460327,385.159149 407.323761,385.221527 
	C407.323761,447.437317 407.323761,509.146332 407.323761,570.995483 
	C436.780609,570.995483 465.917480,571.083374 495.053375,570.952637 
	C506.854584,570.899658 518.713501,571.010254 530.440430,569.914734 
	C550.599121,568.031433 568.447815,559.339844 580.960388,543.923462 
	C607.060547,511.766235 614.472900,474.937836 602.564453,434.037323 
M348.753876,653.085999 
	C349.677856,643.898010 350.601807,634.710083 351.578003,625.002686 
	C342.396149,625.002686 334.086731,624.573120 325.847931,625.151001 
	C320.183380,625.548340 314.260101,626.494690 309.073914,628.674316 
	C293.961731,635.025391 287.818390,655.206360 291.674622,672.523132 
	C295.672699,690.476990 315.597687,697.066589 329.296295,694.710510 
	C332.506317,694.158447 336.720764,690.986694 337.805145,688.038757 
	C341.915131,676.865784 344.929382,665.289734 348.753876,653.085999 
z"/>
<path fill="#000000" opacity="1.000000" stroke="none" 
	d="
M588.325684,342.667480 
	C567.791504,332.404724 546.357971,328.647003 523.844177,328.892700 
	C486.525360,329.299896 449.198792,328.999817 411.875488,328.997742 
	C410.410156,328.997650 408.944855,328.997711 407.242950,328.997711 
	C407.242950,310.932312 407.242950,293.181000 407.242950,275.265289 
	C407.593048,275.139343 408.019867,274.852203 408.447510,274.850952 
	C447.599457,274.735443 486.751434,274.564392 525.903442,274.567902 
	C567.737000,274.571655 605.559082,286.987183 638.516785,312.786469 
	C665.524841,333.928345 684.563049,361.204193 697.024170,393.126678 
	C705.157410,413.962128 710.282227,435.445007 712.101379,457.779236 
	C717.569336,524.911072 700.087341,585.278320 658.124146,637.993164 
	C632.413879,670.290833 599.726624,692.797424 558.816833,701.447876 
	C544.644836,704.444519 530.027100,706.456726 515.568176,706.755493 
	C477.094788,707.550537 438.596985,707.157593 400.109009,707.273499 
	C396.801788,707.283569 393.495361,707.563965 389.591339,707.746765 
	C400.007355,681.086243 405.723389,653.715027 406.648132,625.002808 
	C408.692413,625.002808 410.483917,625.002747 412.275391,625.002747 
	C446.266266,625.002747 480.262726,624.608215 514.246887,625.086853 
	C580.034363,626.013489 630.468384,587.167053 652.050781,529.777222 
	C661.381958,504.964661 664.376587,479.614441 662.184937,453.314117 
	C659.804565,424.750580 650.615051,398.971558 632.032959,377.019592 
	C619.958069,362.754883 605.668396,351.000885 588.325684,342.667480 
z"/>
<path fill="#000000" opacity="1.000000" stroke="none" 
	d="
M602.740723,434.393372 
	C614.472900,474.937836 607.060547,511.766235 580.960388,543.923462 
	C568.447815,559.339844 550.599121,568.031433 530.440430,569.914734 
	C518.713501,571.010254 506.854584,570.899658 495.053375,570.952637 
	C465.917480,571.083374 436.780609,570.995483 407.323761,570.995483 
	C407.323761,509.146332 407.323761,447.437317 407.323761,385.221527 
	C408.460327,385.159149 409.877655,385.013916 411.295044,385.013458 
	C449.437378,385.001129 487.581757,384.768372 525.721191,385.099304 
	C545.882141,385.274231 565.161621,389.058777 581.025574,403.015961 
	C590.775208,411.593658 597.729797,422.068817 602.740723,434.393372 
z"/>
<path fill="#010101" opacity="1.000000" stroke="none" 
	d="
M348.553680,653.475220 
	C344.929382,665.289734 341.915131,676.865784 337.805145,688.038757 
	C336.720764,690.986694 332.506317,694.158447 329.296295,694.710510 
	C315.597687,697.066589 295.672699,690.476990 291.674622,672.523132 
	C287.818390,655.206360 293.961731,635.025391 309.073914,628.674316 
	C314.260101,626.494690 320.183380,625.548340 325.847931,625.151001 
	C334.086731,624.573120 342.396149,625.002686 351.578003,625.002686 
	C350.601807,634.710083 349.677856,643.898010 348.553680,653.475220 
z"/>
</svg>