<svg version="1.1" id="Layer_1" xmlns="http://www.w3.org/2000/svg" xmlns:xlink="http://www.w3.org/1999/xlink" x="0px" y="0px"
	 width="100%" viewBox="0 0 1024 1024" enable-background="new 0 0 1024 1024" xml:space="preserve">
<path fill="#000000" opacity="1.000000" stroke="none" 
	d="
M353.881653,761.385437 
	C332.336823,761.858887 311.848816,759.075378 292.668823,749.880249 
	C261.640747,735.005066 243.150162,710.372803 238.544128,676.370178 
	C233.887650,641.995117 242.438889,611.745117 271.032410,589.672791 
	C285.553223,578.463623 302.341431,572.461487 320.680542,570.495789 
	C328.346313,569.674133 335.968567,569.780457 343.616302,569.653076 
	C350.075531,569.545532 350.715332,569.005371 350.727478,562.445190 
	C350.803802,521.113037 350.872986,479.780914 350.910126,438.448792 
	C350.924042,422.949310 350.876251,407.449585 350.795563,391.950287 
	C350.761597,385.431549 350.643158,385.368958 343.959473,385.367432 
	C320.793335,385.362213 297.627167,385.381744 274.461029,385.366821 
	C268.011627,385.362671 267.130249,384.707062 266.970825,378.331879 
	C266.608856,363.855347 266.013824,349.375427 267.592590,334.909363 
	C268.101135,330.249451 271.127838,329.745392 274.616852,329.714050 
	C284.282654,329.627289 293.949493,329.653839 303.615936,329.647705 
	C317.448975,329.638947 331.283569,329.523773 345.114075,329.709808 
	C349.257721,329.765564 350.749237,328.271301 350.712738,324.195374 
	C350.584351,309.863556 350.561249,295.528656 350.729828,281.197632 
	C350.782074,276.755585 348.846191,275.090454 344.714142,275.431885 
	C335.736877,276.173676 326.730835,275.940308 317.747589,276.287964 
	C308.422150,276.648895 300.327118,273.812469 293.174530,268.167633 
	C281.723541,259.130432 273.613495,247.827499 270.379333,233.351288 
	C267.997070,222.688095 271.695312,217.819168 282.659698,217.896820 
	C299.319580,218.014801 315.977234,218.569962 332.636627,218.609573 
	C395.968048,218.760193 459.300476,218.622330 522.631165,218.906509 
	C558.678772,219.068283 593.996338,223.881516 627.222656,238.859406 
	C685.633301,265.190033 725.212585,309.508240 749.101318,368.286743 
	C759.352112,393.508972 765.022095,419.908295 767.539856,447.097717 
	C769.838135,471.916779 769.017700,496.553223 766.491333,521.268494 
	C762.406128,561.234558 750.666626,598.784851 730.866333,633.650146 
	C703.540833,681.766174 665.888611,719.076294 614.831482,741.841736 
	C592.158630,751.951111 568.393555,758.116211 543.686401,760.301514 
	C500.125793,764.154358 456.449280,761.847778 412.825531,762.301270 
	C393.340546,762.503906 373.836426,762.727234 353.881653,761.385437 
M551.312439,276.353424 
	C548.003906,276.031799 544.695679,275.435028 541.386719,275.430328 
	C498.560120,275.369385 455.733368,275.379486 412.906677,275.410461 
	C407.245392,275.414551 406.343262,276.388458 406.326477,282.227234 
	C406.287659,295.725067 406.507019,309.227478 406.205383,322.718689 
	C406.096283,327.597260 407.671173,328.889374 412.452972,328.860107 
	C447.279816,328.646912 482.108337,328.732849 516.936279,328.671814 
	C529.277100,328.650177 541.601685,329.553253 553.635071,331.971375 
	C603.680542,342.027924 637.641296,371.103394 654.433472,419.450165 
	C664.041687,447.113342 664.636108,475.506531 659.061646,504.088837 
	C653.630615,531.935059 642.484619,557.156311 623.252991,578.279053 
	C593.109924,611.386047 554.933716,626.393921 510.683105,626.830627 
	C480.023895,627.133179 449.359863,626.914124 418.698792,627.076050 
	C403.995361,627.153625 406.833893,624.424622 405.449829,640.407349 
	C403.922638,658.042542 401.411316,675.398193 394.920013,691.982117 
	C393.145508,696.515625 391.343201,701.038208 389.379547,706.006348 
	C392.993317,706.006348 395.811218,706.037720 398.628296,706.001648 
	C445.425079,705.401672 492.246185,706.909302 539.020203,704.614685 
	C556.473938,703.758423 573.178650,699.110291 589.125732,692.187317 
	C628.594543,675.053162 658.130310,646.642151 679.586792,609.838623 
	C701.187805,572.787170 712.145569,532.737854 713.121765,489.608276 
	C713.928101,453.983246 709.349365,419.634827 695.507751,386.721832 
	C679.845764,349.480103 654.723572,320.168640 620.433655,298.914246 
	C599.574463,285.984772 576.319458,279.763000 551.312439,276.353424 
M599.253540,429.222504 
	C584.808777,399.385162 560.652649,384.677246 527.861084,384.501709 
	C489.229462,384.294891 450.594360,384.800110 411.960480,384.890045 
	C407.774384,384.899780 406.179169,386.187958 406.180969,390.665283 
	C406.204224,448.290894 406.087677,505.916809 405.852142,563.541992 
	C405.832520,568.346069 407.401886,569.770264 412.185364,569.746643 
	C448.159302,569.568787 484.137085,569.891663 520.108032,569.516174 
	C532.951843,569.382141 545.658386,566.953552 557.159973,560.758484 
	C590.176514,542.974731 604.778015,513.748474 607.538757,477.690399 
	C608.797729,461.246124 605.932190,445.222015 599.253540,429.222504 
M349.710144,649.441101 
	C351.081665,643.705811 350.384308,637.842773 350.814392,632.052490 
	C351.118530,627.958008 349.540070,626.203003 345.424316,626.354309 
	C338.450531,626.610779 331.484650,626.719666 324.502930,627.140198 
	C300.627380,628.578674 279.291931,653.170349 297.618317,681.626465 
	C301.923645,688.311523 307.221008,692.162903 316.014801,691.847656 
	C330.177185,691.339844 339.656738,685.406067 344.671631,672.109680 
	C347.334167,665.050171 348.605835,657.729492 349.710144,649.441101 
z"/>
</svg>